<?xml version="1.0" encoding="utf-8" standalone="no"?>
<!DOCTYPE svg PUBLIC "-//W3C//DTD SVG 1.1//EN"
  "http://www.w3.org/Graphics/SVG/1.1/DTD/svg11.dtd">
<!-- Created with matplotlib (https://matplotlib.org/) -->
<svg height="277.314375pt" version="1.1" viewBox="0 0 202.5225 277.314375" width="202.5225pt" xmlns="http://www.w3.org/2000/svg" xmlns:xlink="http://www.w3.org/1999/xlink">
 <metadata>
  <rdf:RDF xmlns:cc="http://creativecommons.org/ns#" xmlns:dc="http://purl.org/dc/elements/1.1/" xmlns:rdf="http://www.w3.org/1999/02/22-rdf-syntax-ns#">
   <cc:Work>
    <dc:type rdf:resource="http://purl.org/dc/dcmitype/StillImage"/>
    <dc:date>2021-01-24T15:44:36.171535</dc:date>
    <dc:format>image/svg+xml</dc:format>
    <dc:creator>
     <cc:Agent>
      <dc:title>Matplotlib v3.3.3, https://matplotlib.org/</dc:title>
     </cc:Agent>
    </dc:creator>
   </cc:Work>
  </rdf:RDF>
 </metadata>
 <defs>
  <style type="text/css">*{stroke-linecap:butt;stroke-linejoin:round;}</style>
 </defs>
 <g id="figure_1">
  <g id="patch_1">
   <path d="M 0 277.314375 
L 202.5225 277.314375 
L 202.5225 0 
L 0 0 
z
"/>
  </g>
  <g id="axes_1">
   <g id="patch_2">
    <path d="M 82.346873 239.758125 
L 120.175627 239.758125 
L 120.175627 22.318125 
L 82.346873 22.318125 
z
"/>
   </g>
   <g id="matplotlib.axis_1">
    <g id="xtick_1">
     <g id="line2d_1">
      <defs>
       <path d="M 0 0 
L 0 3.5 
" id="mfe45e8b881" style="stroke:#ffffff;stroke-width:0.8;"/>
      </defs>
      <g>
       <use style="fill:#ffffff;stroke:#ffffff;stroke-width:0.8;" x="99.855298" xlink:href="#mfe45e8b881" y="239.758125"/>
      </g>
     </g>
     <g id="text_1">
      <!-- −1000 -->
      <g style="fill:#ffffff;" transform="translate(82.940454 254.356562)scale(0.1 -0.1)">
       <defs>
        <path d="M 10.59375 35.5 
L 73.1875 35.5 
L 73.1875 27.203125 
L 10.59375 27.203125 
z
" id="DejaVuSans-8722"/>
        <path d="M 12.40625 8.296875 
L 28.515625 8.296875 
L 28.515625 63.921875 
L 10.984375 60.40625 
L 10.984375 69.390625 
L 28.421875 72.90625 
L 38.28125 72.90625 
L 38.28125 8.296875 
L 54.390625 8.296875 
L 54.390625 0 
L 12.40625 0 
z
" id="DejaVuSans-49"/>
        <path d="M 31.78125 66.40625 
Q 24.171875 66.40625 20.328125 58.90625 
Q 16.5 51.421875 16.5 36.375 
Q 16.5 21.390625 20.328125 13.890625 
Q 24.171875 6.390625 31.78125 6.390625 
Q 39.453125 6.390625 43.28125 13.890625 
Q 47.125 21.390625 47.125 36.375 
Q 47.125 51.421875 43.28125 58.90625 
Q 39.453125 66.40625 31.78125 66.40625 
z
M 31.78125 74.21875 
Q 44.046875 74.21875 50.515625 64.515625 
Q 56.984375 54.828125 56.984375 36.375 
Q 56.984375 17.96875 50.515625 8.265625 
Q 44.046875 -1.421875 31.78125 -1.421875 
Q 19.53125 -1.421875 13.0625 8.265625 
Q 6.59375 17.96875 6.59375 36.375 
Q 6.59375 54.828125 13.0625 64.515625 
Q 19.53125 74.21875 31.78125 74.21875 
z
" id="DejaVuSans-48"/>
       </defs>
       <use xlink:href="#DejaVuSans-8722"/>
       <use x="83.789062" xlink:href="#DejaVuSans-49"/>
       <use x="147.412109" xlink:href="#DejaVuSans-48"/>
       <use x="211.035156" xlink:href="#DejaVuSans-48"/>
       <use x="274.658203" xlink:href="#DejaVuSans-48"/>
      </g>
     </g>
    </g>
    <g id="xtick_2">
     <g id="line2d_2">
      <g>
       <use style="fill:#ffffff;stroke:#ffffff;stroke-width:0.8;" x="117.467475" xlink:href="#mfe45e8b881" y="239.758125"/>
      </g>
     </g>
     <g id="text_2">
      <!-- 0 -->
      <g style="fill:#ffffff;" transform="translate(114.286225 254.356562)scale(0.1 -0.1)">
       <use xlink:href="#DejaVuSans-48"/>
      </g>
     </g>
    </g>
    <g id="text_3">
     <!-- East (m) -->
     <g style="fill:#ffffff;" transform="translate(80.112031 268.034687)scale(0.1 -0.1)">
      <defs>
       <path d="M 9.8125 72.90625 
L 55.90625 72.90625 
L 55.90625 64.59375 
L 19.671875 64.59375 
L 19.671875 43.015625 
L 54.390625 43.015625 
L 54.390625 34.71875 
L 19.671875 34.71875 
L 19.671875 8.296875 
L 56.78125 8.296875 
L 56.78125 0 
L 9.8125 0 
z
" id="DejaVuSans-69"/>
       <path d="M 34.28125 27.484375 
Q 23.390625 27.484375 19.1875 25 
Q 14.984375 22.515625 14.984375 16.5 
Q 14.984375 11.71875 18.140625 8.90625 
Q 21.296875 6.109375 26.703125 6.109375 
Q 34.1875 6.109375 38.703125 11.40625 
Q 43.21875 16.703125 43.21875 25.484375 
L 43.21875 27.484375 
z
M 52.203125 31.203125 
L 52.203125 0 
L 43.21875 0 
L 43.21875 8.296875 
Q 40.140625 3.328125 35.546875 0.953125 
Q 30.953125 -1.421875 24.3125 -1.421875 
Q 15.921875 -1.421875 10.953125 3.296875 
Q 6 8.015625 6 15.921875 
Q 6 25.140625 12.171875 29.828125 
Q 18.359375 34.515625 30.609375 34.515625 
L 43.21875 34.515625 
L 43.21875 35.40625 
Q 43.21875 41.609375 39.140625 45 
Q 35.0625 48.390625 27.6875 48.390625 
Q 23 48.390625 18.546875 47.265625 
Q 14.109375 46.140625 10.015625 43.890625 
L 10.015625 52.203125 
Q 14.9375 54.109375 19.578125 55.046875 
Q 24.21875 56 28.609375 56 
Q 40.484375 56 46.34375 49.84375 
Q 52.203125 43.703125 52.203125 31.203125 
z
" id="DejaVuSans-97"/>
       <path d="M 44.28125 53.078125 
L 44.28125 44.578125 
Q 40.484375 46.53125 36.375 47.5 
Q 32.28125 48.484375 27.875 48.484375 
Q 21.1875 48.484375 17.84375 46.4375 
Q 14.5 44.390625 14.5 40.28125 
Q 14.5 37.15625 16.890625 35.375 
Q 19.28125 33.59375 26.515625 31.984375 
L 29.59375 31.296875 
Q 39.15625 29.25 43.1875 25.515625 
Q 47.21875 21.78125 47.21875 15.09375 
Q 47.21875 7.46875 41.1875 3.015625 
Q 35.15625 -1.421875 24.609375 -1.421875 
Q 20.21875 -1.421875 15.453125 -0.5625 
Q 10.6875 0.296875 5.421875 2 
L 5.421875 11.28125 
Q 10.40625 8.6875 15.234375 7.390625 
Q 20.0625 6.109375 24.8125 6.109375 
Q 31.15625 6.109375 34.5625 8.28125 
Q 37.984375 10.453125 37.984375 14.40625 
Q 37.984375 18.0625 35.515625 20.015625 
Q 33.0625 21.96875 24.703125 23.78125 
L 21.578125 24.515625 
Q 13.234375 26.265625 9.515625 29.90625 
Q 5.8125 33.546875 5.8125 39.890625 
Q 5.8125 47.609375 11.28125 51.796875 
Q 16.75 56 26.8125 56 
Q 31.78125 56 36.171875 55.265625 
Q 40.578125 54.546875 44.28125 53.078125 
z
" id="DejaVuSans-115"/>
       <path d="M 18.3125 70.21875 
L 18.3125 54.6875 
L 36.8125 54.6875 
L 36.8125 47.703125 
L 18.3125 47.703125 
L 18.3125 18.015625 
Q 18.3125 11.328125 20.140625 9.421875 
Q 21.96875 7.515625 27.59375 7.515625 
L 36.8125 7.515625 
L 36.8125 0 
L 27.59375 0 
Q 17.1875 0 13.234375 3.875 
Q 9.28125 7.765625 9.28125 18.015625 
L 9.28125 47.703125 
L 2.6875 47.703125 
L 2.6875 54.6875 
L 9.28125 54.6875 
L 9.28125 70.21875 
z
" id="DejaVuSans-116"/>
       <path id="DejaVuSans-32"/>
       <path d="M 31 75.875 
Q 24.46875 64.65625 21.28125 53.65625 
Q 18.109375 42.671875 18.109375 31.390625 
Q 18.109375 20.125 21.3125 9.0625 
Q 24.515625 -2 31 -13.1875 
L 23.1875 -13.1875 
Q 15.875 -1.703125 12.234375 9.375 
Q 8.59375 20.453125 8.59375 31.390625 
Q 8.59375 42.28125 12.203125 53.3125 
Q 15.828125 64.359375 23.1875 75.875 
z
" id="DejaVuSans-40"/>
       <path d="M 52 44.1875 
Q 55.375 50.25 60.0625 53.125 
Q 64.75 56 71.09375 56 
Q 79.640625 56 84.28125 50.015625 
Q 88.921875 44.046875 88.921875 33.015625 
L 88.921875 0 
L 79.890625 0 
L 79.890625 32.71875 
Q 79.890625 40.578125 77.09375 44.375 
Q 74.3125 48.1875 68.609375 48.1875 
Q 61.625 48.1875 57.5625 43.546875 
Q 53.515625 38.921875 53.515625 30.90625 
L 53.515625 0 
L 44.484375 0 
L 44.484375 32.71875 
Q 44.484375 40.625 41.703125 44.40625 
Q 38.921875 48.1875 33.109375 48.1875 
Q 26.21875 48.1875 22.15625 43.53125 
Q 18.109375 38.875 18.109375 30.90625 
L 18.109375 0 
L 9.078125 0 
L 9.078125 54.6875 
L 18.109375 54.6875 
L 18.109375 46.1875 
Q 21.1875 51.21875 25.484375 53.609375 
Q 29.78125 56 35.6875 56 
Q 41.65625 56 45.828125 52.96875 
Q 50 49.953125 52 44.1875 
z
" id="DejaVuSans-109"/>
       <path d="M 8.015625 75.875 
L 15.828125 75.875 
Q 23.140625 64.359375 26.78125 53.3125 
Q 30.421875 42.28125 30.421875 31.390625 
Q 30.421875 20.453125 26.78125 9.375 
Q 23.140625 -1.703125 15.828125 -13.1875 
L 8.015625 -13.1875 
Q 14.5 -2 17.703125 9.0625 
Q 20.90625 20.125 20.90625 31.390625 
Q 20.90625 42.671875 17.703125 53.65625 
Q 14.5 64.65625 8.015625 75.875 
z
" id="DejaVuSans-41"/>
      </defs>
      <use xlink:href="#DejaVuSans-69"/>
      <use x="63.183594" xlink:href="#DejaVuSans-97"/>
      <use x="124.462891" xlink:href="#DejaVuSans-115"/>
      <use x="176.5625" xlink:href="#DejaVuSans-116"/>
      <use x="215.771484" xlink:href="#DejaVuSans-32"/>
      <use x="247.558594" xlink:href="#DejaVuSans-40"/>
      <use x="286.572266" xlink:href="#DejaVuSans-109"/>
      <use x="383.984375" xlink:href="#DejaVuSans-41"/>
     </g>
    </g>
   </g>
   <g id="matplotlib.axis_2">
    <g id="ytick_1">
     <g id="line2d_3">
      <defs>
       <path d="M 0 0 
L -3.5 0 
" id="me60b698609" style="stroke:#ffffff;stroke-width:0.8;"/>
      </defs>
      <g>
       <use style="fill:#ffffff;stroke:#ffffff;stroke-width:0.8;" x="82.346873" xlink:href="#me60b698609" y="206.84698"/>
      </g>
     </g>
     <g id="text_4">
      <!-- −20000 -->
      <g style="fill:#ffffff;" transform="translate(35.154686 210.646198)scale(0.1 -0.1)">
       <defs>
        <path d="M 19.1875 8.296875 
L 53.609375 8.296875 
L 53.609375 0 
L 7.328125 0 
L 7.328125 8.296875 
Q 12.9375 14.109375 22.625 23.890625 
Q 32.328125 33.6875 34.8125 36.53125 
Q 39.546875 41.84375 41.421875 45.53125 
Q 43.3125 49.21875 43.3125 52.78125 
Q 43.3125 58.59375 39.234375 62.25 
Q 35.15625 65.921875 28.609375 65.921875 
Q 23.96875 65.921875 18.8125 64.3125 
Q 13.671875 62.703125 7.8125 59.421875 
L 7.8125 69.390625 
Q 13.765625 71.78125 18.9375 73 
Q 24.125 74.21875 28.421875 74.21875 
Q 39.75 74.21875 46.484375 68.546875 
Q 53.21875 62.890625 53.21875 53.421875 
Q 53.21875 48.921875 51.53125 44.890625 
Q 49.859375 40.875 45.40625 35.40625 
Q 44.1875 33.984375 37.640625 27.21875 
Q 31.109375 20.453125 19.1875 8.296875 
z
" id="DejaVuSans-50"/>
       </defs>
       <use xlink:href="#DejaVuSans-8722"/>
       <use x="83.789062" xlink:href="#DejaVuSans-50"/>
       <use x="147.412109" xlink:href="#DejaVuSans-48"/>
       <use x="211.035156" xlink:href="#DejaVuSans-48"/>
       <use x="274.658203" xlink:href="#DejaVuSans-48"/>
       <use x="338.28125" xlink:href="#DejaVuSans-48"/>
      </g>
     </g>
    </g>
    <g id="ytick_2">
     <g id="line2d_4">
      <g>
       <use style="fill:#ffffff;stroke:#ffffff;stroke-width:0.8;" x="82.346873" xlink:href="#me60b698609" y="171.622626"/>
      </g>
     </g>
     <g id="text_5">
      <!-- −18000 -->
      <g style="fill:#ffffff;" transform="translate(35.154686 175.421844)scale(0.1 -0.1)">
       <defs>
        <path d="M 31.78125 34.625 
Q 24.75 34.625 20.71875 30.859375 
Q 16.703125 27.09375 16.703125 20.515625 
Q 16.703125 13.921875 20.71875 10.15625 
Q 24.75 6.390625 31.78125 6.390625 
Q 38.8125 6.390625 42.859375 10.171875 
Q 46.921875 13.96875 46.921875 20.515625 
Q 46.921875 27.09375 42.890625 30.859375 
Q 38.875 34.625 31.78125 34.625 
z
M 21.921875 38.8125 
Q 15.578125 40.375 12.03125 44.71875 
Q 8.5 49.078125 8.5 55.328125 
Q 8.5 64.0625 14.71875 69.140625 
Q 20.953125 74.21875 31.78125 74.21875 
Q 42.671875 74.21875 48.875 69.140625 
Q 55.078125 64.0625 55.078125 55.328125 
Q 55.078125 49.078125 51.53125 44.71875 
Q 48 40.375 41.703125 38.8125 
Q 48.828125 37.15625 52.796875 32.3125 
Q 56.78125 27.484375 56.78125 20.515625 
Q 56.78125 9.90625 50.3125 4.234375 
Q 43.84375 -1.421875 31.78125 -1.421875 
Q 19.734375 -1.421875 13.25 4.234375 
Q 6.78125 9.90625 6.78125 20.515625 
Q 6.78125 27.484375 10.78125 32.3125 
Q 14.796875 37.15625 21.921875 38.8125 
z
M 18.3125 54.390625 
Q 18.3125 48.734375 21.84375 45.5625 
Q 25.390625 42.390625 31.78125 42.390625 
Q 38.140625 42.390625 41.71875 45.5625 
Q 45.3125 48.734375 45.3125 54.390625 
Q 45.3125 60.0625 41.71875 63.234375 
Q 38.140625 66.40625 31.78125 66.40625 
Q 25.390625 66.40625 21.84375 63.234375 
Q 18.3125 60.0625 18.3125 54.390625 
z
" id="DejaVuSans-56"/>
       </defs>
       <use xlink:href="#DejaVuSans-8722"/>
       <use x="83.789062" xlink:href="#DejaVuSans-49"/>
       <use x="147.412109" xlink:href="#DejaVuSans-56"/>
       <use x="211.035156" xlink:href="#DejaVuSans-48"/>
       <use x="274.658203" xlink:href="#DejaVuSans-48"/>
       <use x="338.28125" xlink:href="#DejaVuSans-48"/>
      </g>
     </g>
    </g>
    <g id="ytick_3">
     <g id="line2d_5">
      <g>
       <use style="fill:#ffffff;stroke:#ffffff;stroke-width:0.8;" x="82.346873" xlink:href="#me60b698609" y="136.398272"/>
      </g>
     </g>
     <g id="text_6">
      <!-- −16000 -->
      <g style="fill:#ffffff;" transform="translate(35.154686 140.19749)scale(0.1 -0.1)">
       <defs>
        <path d="M 33.015625 40.375 
Q 26.375 40.375 22.484375 35.828125 
Q 18.609375 31.296875 18.609375 23.390625 
Q 18.609375 15.53125 22.484375 10.953125 
Q 26.375 6.390625 33.015625 6.390625 
Q 39.65625 6.390625 43.53125 10.953125 
Q 47.40625 15.53125 47.40625 23.390625 
Q 47.40625 31.296875 43.53125 35.828125 
Q 39.65625 40.375 33.015625 40.375 
z
M 52.59375 71.296875 
L 52.59375 62.3125 
Q 48.875 64.0625 45.09375 64.984375 
Q 41.3125 65.921875 37.59375 65.921875 
Q 27.828125 65.921875 22.671875 59.328125 
Q 17.53125 52.734375 16.796875 39.40625 
Q 19.671875 43.65625 24.015625 45.921875 
Q 28.375 48.1875 33.59375 48.1875 
Q 44.578125 48.1875 50.953125 41.515625 
Q 57.328125 34.859375 57.328125 23.390625 
Q 57.328125 12.15625 50.6875 5.359375 
Q 44.046875 -1.421875 33.015625 -1.421875 
Q 20.359375 -1.421875 13.671875 8.265625 
Q 6.984375 17.96875 6.984375 36.375 
Q 6.984375 53.65625 15.1875 63.9375 
Q 23.390625 74.21875 37.203125 74.21875 
Q 40.921875 74.21875 44.703125 73.484375 
Q 48.484375 72.75 52.59375 71.296875 
z
" id="DejaVuSans-54"/>
       </defs>
       <use xlink:href="#DejaVuSans-8722"/>
       <use x="83.789062" xlink:href="#DejaVuSans-49"/>
       <use x="147.412109" xlink:href="#DejaVuSans-54"/>
       <use x="211.035156" xlink:href="#DejaVuSans-48"/>
       <use x="274.658203" xlink:href="#DejaVuSans-48"/>
       <use x="338.28125" xlink:href="#DejaVuSans-48"/>
      </g>
     </g>
    </g>
    <g id="ytick_4">
     <g id="line2d_6">
      <g>
       <use style="fill:#ffffff;stroke:#ffffff;stroke-width:0.8;" x="82.346873" xlink:href="#me60b698609" y="101.173918"/>
      </g>
     </g>
     <g id="text_7">
      <!-- −14000 -->
      <g style="fill:#ffffff;" transform="translate(35.154686 104.973136)scale(0.1 -0.1)">
       <defs>
        <path d="M 37.796875 64.3125 
L 12.890625 25.390625 
L 37.796875 25.390625 
z
M 35.203125 72.90625 
L 47.609375 72.90625 
L 47.609375 25.390625 
L 58.015625 25.390625 
L 58.015625 17.1875 
L 47.609375 17.1875 
L 47.609375 0 
L 37.796875 0 
L 37.796875 17.1875 
L 4.890625 17.1875 
L 4.890625 26.703125 
z
" id="DejaVuSans-52"/>
       </defs>
       <use xlink:href="#DejaVuSans-8722"/>
       <use x="83.789062" xlink:href="#DejaVuSans-49"/>
       <use x="147.412109" xlink:href="#DejaVuSans-52"/>
       <use x="211.035156" xlink:href="#DejaVuSans-48"/>
       <use x="274.658203" xlink:href="#DejaVuSans-48"/>
       <use x="338.28125" xlink:href="#DejaVuSans-48"/>
      </g>
     </g>
    </g>
    <g id="ytick_5">
     <g id="line2d_7">
      <g>
       <use style="fill:#ffffff;stroke:#ffffff;stroke-width:0.8;" x="82.346873" xlink:href="#me60b698609" y="65.949564"/>
      </g>
     </g>
     <g id="text_8">
      <!-- −12000 -->
      <g style="fill:#ffffff;" transform="translate(35.154686 69.748782)scale(0.1 -0.1)">
       <use xlink:href="#DejaVuSans-8722"/>
       <use x="83.789062" xlink:href="#DejaVuSans-49"/>
       <use x="147.412109" xlink:href="#DejaVuSans-50"/>
       <use x="211.035156" xlink:href="#DejaVuSans-48"/>
       <use x="274.658203" xlink:href="#DejaVuSans-48"/>
       <use x="338.28125" xlink:href="#DejaVuSans-48"/>
      </g>
     </g>
    </g>
    <g id="ytick_6">
     <g id="line2d_8">
      <g>
       <use style="fill:#ffffff;stroke:#ffffff;stroke-width:0.8;" x="82.346873" xlink:href="#me60b698609" y="30.72521"/>
      </g>
     </g>
     <g id="text_9">
      <!-- −10000 -->
      <g style="fill:#ffffff;" transform="translate(35.154686 34.524428)scale(0.1 -0.1)">
       <use xlink:href="#DejaVuSans-8722"/>
       <use x="83.789062" xlink:href="#DejaVuSans-49"/>
       <use x="147.412109" xlink:href="#DejaVuSans-48"/>
       <use x="211.035156" xlink:href="#DejaVuSans-48"/>
       <use x="274.658203" xlink:href="#DejaVuSans-48"/>
       <use x="338.28125" xlink:href="#DejaVuSans-48"/>
      </g>
     </g>
    </g>
    <g id="text_10">
     <!-- North (m) -->
     <g style="fill:#ffffff;" transform="translate(29.074998 155.383437)rotate(-90)scale(0.1 -0.1)">
      <defs>
       <path d="M 9.8125 72.90625 
L 23.09375 72.90625 
L 55.421875 11.921875 
L 55.421875 72.90625 
L 64.984375 72.90625 
L 64.984375 0 
L 51.703125 0 
L 19.390625 60.984375 
L 19.390625 0 
L 9.8125 0 
z
" id="DejaVuSans-78"/>
       <path d="M 30.609375 48.390625 
Q 23.390625 48.390625 19.1875 42.75 
Q 14.984375 37.109375 14.984375 27.296875 
Q 14.984375 17.484375 19.15625 11.84375 
Q 23.34375 6.203125 30.609375 6.203125 
Q 37.796875 6.203125 41.984375 11.859375 
Q 46.1875 17.53125 46.1875 27.296875 
Q 46.1875 37.015625 41.984375 42.703125 
Q 37.796875 48.390625 30.609375 48.390625 
z
M 30.609375 56 
Q 42.328125 56 49.015625 48.375 
Q 55.71875 40.765625 55.71875 27.296875 
Q 55.71875 13.875 49.015625 6.21875 
Q 42.328125 -1.421875 30.609375 -1.421875 
Q 18.84375 -1.421875 12.171875 6.21875 
Q 5.515625 13.875 5.515625 27.296875 
Q 5.515625 40.765625 12.171875 48.375 
Q 18.84375 56 30.609375 56 
z
" id="DejaVuSans-111"/>
       <path d="M 41.109375 46.296875 
Q 39.59375 47.171875 37.8125 47.578125 
Q 36.03125 48 33.890625 48 
Q 26.265625 48 22.1875 43.046875 
Q 18.109375 38.09375 18.109375 28.8125 
L 18.109375 0 
L 9.078125 0 
L 9.078125 54.6875 
L 18.109375 54.6875 
L 18.109375 46.1875 
Q 20.953125 51.171875 25.484375 53.578125 
Q 30.03125 56 36.53125 56 
Q 37.453125 56 38.578125 55.875 
Q 39.703125 55.765625 41.0625 55.515625 
z
" id="DejaVuSans-114"/>
       <path d="M 54.890625 33.015625 
L 54.890625 0 
L 45.90625 0 
L 45.90625 32.71875 
Q 45.90625 40.484375 42.875 44.328125 
Q 39.84375 48.1875 33.796875 48.1875 
Q 26.515625 48.1875 22.3125 43.546875 
Q 18.109375 38.921875 18.109375 30.90625 
L 18.109375 0 
L 9.078125 0 
L 9.078125 75.984375 
L 18.109375 75.984375 
L 18.109375 46.1875 
Q 21.34375 51.125 25.703125 53.5625 
Q 30.078125 56 35.796875 56 
Q 45.21875 56 50.046875 50.171875 
Q 54.890625 44.34375 54.890625 33.015625 
z
" id="DejaVuSans-104"/>
      </defs>
      <use xlink:href="#DejaVuSans-78"/>
      <use x="74.804688" xlink:href="#DejaVuSans-111"/>
      <use x="135.986328" xlink:href="#DejaVuSans-114"/>
      <use x="177.099609" xlink:href="#DejaVuSans-116"/>
      <use x="216.308594" xlink:href="#DejaVuSans-104"/>
      <use x="279.6875" xlink:href="#DejaVuSans-32"/>
      <use x="311.474609" xlink:href="#DejaVuSans-40"/>
      <use x="350.488281" xlink:href="#DejaVuSans-109"/>
      <use x="447.900391" xlink:href="#DejaVuSans-41"/>
     </g>
    </g>
   </g>
   <g id="line2d_9">
    <path clip-path="url(#p43cad09572)" d="M 117.467475 229.756837 
L 117.427279 229.874489 
L 117.483906 229.624456 
L 117.399203 229.740892 
L 117.254142 229.639238 
L 117.299078 229.859288 
L 117.336752 229.751903 
L 117.036821 229.606917 
L 117.178975 229.500217 
L 117.184478 229.299057 
L 117.04973 229.165072 
L 117.128234 228.846085 
L 116.936398 228.150529 
L 117.077692 228.306176 
L 117.166994 228.103312 
L 117.070557 227.835806 
L 117.212802 227.520915 
L 117.080314 227.391062 
L 117.013824 226.17778 
L 117.193689 226.118905 
L 117.098672 225.889381 
L 117.171907 225.774159 
L 117.04818 225.509056 
L 117.229376 224.619851 
L 116.983603 224.632582 
L 117.080528 224.334692 
L 117.283642 224.2464 
L 117.345969 223.939239 
L 117.202174 223.469061 
L 117.249908 221.78063 
L 117.45029 222.05146 
L 117.259402 220.601906 
L 116.906083 220.339405 
L 117.051143 220.066317 
L 116.867994 219.855833 
L 117.15567 219.829123 
L 117.233796 219.526921 
L 117.111528 218.429934 
L 117.118059 218.228403 
L 116.900864 217.677523 
L 117.382582 217.265318 
L 117.101146 216.667637 
L 117.162395 216.207485 
L 116.889018 216.17876 
L 117.101974 214.945113 
L 116.977846 214.739366 
L 117.075414 214.413988 
L 116.972889 214.19535 
L 117.366847 214.320897 
L 117.179612 213.459268 
L 117.51687 214.345734 
L 116.624917 213.301149 
L 116.579905 212.736805 
L 116.356922 212.733775 
L 116.204124 212.578191 
L 116.118471 212.17025 
L 117.331297 211.310802 
L 115.82892 211.632919 
L 115.654649 211.480916 
L 115.602386 211.250081 
L 116.842554 210.372891 
L 117.614123 209.487852 
L 117.108451 209.499984 
L 116.665143 209.661844 
L 116.937616 209.237394 
L 116.818404 209.269398 
L 116.750205 209.102345 
L 117.404929 208.333559 
L 117.24774 207.837282 
L 117.600837 207.60192 
L 116.777162 207.295611 
L 116.511858 207.329661 
L 117.176962 206.752433 
L 117.50148 206.167301 
L 117.0917 206.024568 
L 117.234291 205.942469 
L 117.07558 205.971052 
L 117.246993 205.80523 
L 117.007673 205.726877 
L 116.328172 205.670439 
L 116.08648 205.905102 
L 116.082807 205.62143 
L 116.862526 205.612392 
L 116.824898 205.767391 
L 117.011858 205.433781 
L 117.265367 205.31027 
L 117.063329 204.941491 
L 117.109934 204.653875 
L 116.765834 204.626429 
L 116.829407 204.414162 
L 116.542842 204.006294 
L 116.142358 203.958273 
L 115.277383 202.953938 
L 116.455109 203.762927 
L 116.219463 203.377176 
L 115.371237 203.07927 
L 114.656767 202.171948 
L 115.979658 203.28363 
L 117.078127 201.913471 
L 116.921098 201.009153 
L 116.848866 200.943014 
L 117.142252 201.779673 
L 116.72452 201.275704 
L 117.222211 201.339315 
L 116.627753 201.08152 
L 116.880623 201.520684 
L 118.010507 201.890771 
L 118.349167 201.435132 
L 118.456138 200.205934 
L 117.160277 200.033152 
L 117.34701 199.596313 
L 116.881613 198.541251 
L 116.807572 198.767192 
L 116.858256 199.717534 
L 117.572999 196.964658 
L 115.337826 198.812509 
L 117.06004 202.17158 
L 116.995667 198.414459 
L 116.896739 198.53144 
L 116.671434 197.89792 
L 116.101939 197.541742 
L 115.886289 197.369868 
L 115.851465 197.058722 
L 115.412856 196.925618 
L 115.808914 196.856371 
L 115.688901 197.034534 
L 115.921638 196.506817 
L 116.000406 196.303079 
L 115.804567 196.203369 
L 115.872651 196.743056 
L 116.070385 196.890636 
L 116.044357 197.360601 
L 115.858834 197.311121 
L 115.786714 196.341271 
L 115.746309 196.652919 
L 115.696874 197.215143 
L 115.960786 197.44571 
L 115.944331 196.59823 
L 116.452026 196.914218 
L 116.085859 197.261254 
L 115.868837 197.257952 
L 115.862039 197.472034 
L 115.398979 197.083279 
L 115.515647 196.990632 
L 115.476254 196.855642 
L 115.711371 196.843334 
L 115.673506 196.42574 
L 115.559251 196.285717 
L 116.284845 196.718155 
L 115.318154 196.846305 
L 115.557076 196.801993 
L 115.53582 195.928757 
L 115.15407 195.596269 
L 115.039355 196.323384 
L 114.871831 195.440916 
L 115.118204 195.764301 
L 115.086968 195.738864 
L 114.824466 195.598506 
L 114.792548 195.30332 
L 115.790482 196.6502 
L 115.701397 196.983084 
L 115.442286 196.898724 
L 114.399987 195.221286 
L 113.254262 195.162954 
L 114.572994 195.102686 
L 114.218659 195.077629 
L 114.231092 195.003625 
L 115.780899 195.421698 
L 114.052479 193.821104 
L 114.405108 194.056283 
L 115.024856 194.021632 
L 114.253014 193.671198 
L 113.89827 194.704452 
L 114.272002 194.085513 
L 113.981158 194.299953 
L 113.76766 194.670935 
L 114.383151 192.879331 
L 113.788137 194.667937 
L 111.895819 192.31855 
L 112.577651 192.859984 
L 113.931371 193.251846 
L 113.886786 193.209183 
L 112.997347 191.888522 
L 113.391888 191.578057 
L 113.823704 191.477581 
L 113.294662 190.946042 
L 112.489378 190.512315 
L 113.382861 190.732901 
L 112.514654 190.946561 
L 112.90027 192.052163 
L 112.050506 191.598006 
L 111.382703 190.944214 
L 112.391215 190.802352 
L 113.485078 191.440886 
L 111.169803 189.776409 
L 111.315366 189.152928 
L 111.0521 189.503349 
L 111.373268 190.111784 
L 111.793715 189.883098 
L 110.667702 189.560208 
L 110.790459 188.280348 
L 110.037171 188.346578 
L 110.072907 188.530959 
L 109.774502 188.183644 
L 108.953316 189.394451 
L 109.682247 188.111446 
L 110.181328 187.730303 
L 109.905724 187.29335 
L 110.238198 188.490081 
L 109.832501 188.088752 
L 109.544942 188.293124 
L 109.974923 187.509245 
L 109.755845 187.57321 
L 109.589573 187.406986 
L 110.728989 185.905656 
L 109.846156 185.793682 
L 109.700988 185.388577 
L 109.169789 186.272182 
L 109.223076 186.513832 
L 108.033144 187.794432 
L 108.50198 188.052391 
L 107.878893 187.263965 
L 110.093962 186.287127 
L 109.771884 186.47503 
L 109.396746 186.33013 
L 110.178272 185.836336 
L 110.443752 186.685569 
L 108.79434 184.531096 
L 107.844856 184.180983 
L 109.510931 185.109633 
L 109.77347 184.599928 
L 109.01362 184.265549 
L 109.687511 185.660963 
L 109.124028 186.376144 
L 109.795958 185.501592 
L 107.035786 187.182208 
L 107.936836 185.847649 
L 107.455144 186.162151 
L 107.082845 185.977515 
L 106.482629 186.144266 
L 108.016471 184.807949 
L 105.729142 185.243445 
L 107.703981 183.198428 
L 107.570116 183.272409 
L 107.772001 182.780457 
L 107.616375 182.190002 
L 107.938005 182.321224 
L 107.620495 181.814662 
L 107.212631 182.267428 
L 107.596007 181.63743 
L 106.819905 182.377836 
L 108.254042 181.636935 
L 106.98073 181.843685 
L 107.560865 182.08844 
L 106.652278 181.917804 
L 106.974541 181.793822 
L 106.990172 181.397109 
L 106.551775 182.011028 
L 106.683595 182.154196 
L 106.714585 181.827371 
L 106.514209 182.306691 
L 106.768523 182.015799 
L 106.565984 182.111395 
L 106.336495 182.074753 
L 107.578629 182.273083 
L 107.709959 184.422449 
L 106.582065 181.788467 
L 107.419001 181.006604 
L 108.491369 181.841479 
L 105.712966 179.749339 
L 107.44665 180.094838 
L 105.194071 179.455163 
L 107.397795 182.795725 
L 105.646585 179.148402 
L 104.909935 179.146027 
L 108.276614 181.390103 
L 106.6553 181.242423 
L 105.375875 178.781445 
L 105.246284 178.915369 
L 105.625418 178.970276 
L 105.526352 178.680716 
L 105.063218 179.199044 
L 105.393845 178.69526 
L 104.744953 179.125165 
L 104.766079 178.951512 
L 104.082596 179.035268 
L 104.666293 178.690031 
L 104.10643 178.384085 
L 104.246696 177.718333 
L 103.966574 177.253094 
L 104.140814 177.494227 
L 103.630725 177.631928 
L 103.801003 178.043711 
L 103.616787 177.883856 
L 103.397078 177.70744 
L 103.427937 178.217929 
L 103.295686 177.46945 
L 103.061869 176.643429 
L 102.30859 175.86418 
L 103.585766 178.497613 
L 102.098082 175.141521 
L 103.668211 178.083603 
L 103.973639 178.04395 
L 104.125548 178.319487 
L 104.097143 178.635392 
L 103.279042 177.73691 
L 101.29995 179.214956 
L 103.314655 177.624577 
L 103.298779 177.452412 
L 103.768918 178.021406 
L 103.230627 177.3884 
L 103.619601 177.631597 
L 103.94192 178.249553 
L 103.304576 178.043462 
L 103.11607 177.595463 
L 103.162718 177.587871 
L 103.377805 177.37708 
L 103.194855 177.423361 
L 103.324586 177.491091 
L 102.693626 177.420786 
L 102.840264 177.259848 
L 103.433961 177.122279 
L 102.660051 177.418491 
L 102.533106 177.100548 
L 101.569581 177.137909 
L 102.519358 176.904188 
L 101.479216 177.57157 
L 101.222365 177.219163 
L 102.164272 176.818601 
L 101.773917 176.491194 
L 99.862564 178.035509 
L 99.737061 177.721962 
L 99.827944 177.870512 
L 101.324182 176.482024 
L 101.119547 176.670548 
L 100.799174 176.48405 
L 100.331208 176.878782 
L 99.440113 177.120438 
L 99.96933 176.771416 
L 99.894372 176.548225 
L 100.64235 175.779267 
L 100.242719 175.282597 
L 99.49761 175.428031 
L 100.090123 174.827154 
L 99.844028 174.824889 
L 99.510606 175.151136 
L 99.82595 174.538538 
L 99.421375 174.672992 
L 99.331238 174.466489 
L 99.116212 174.44513 
L 99.136562 174.183708 
L 99.110947 174.079854 
L 98.419526 175.343498 
L 98.855658 174.719633 
L 98.962033 173.958544 
L 99.335588 174.147225 
L 98.336507 174.300394 
L 98.89404 173.816485 
L 98.973675 173.543232 
L 98.716159 173.840189 
L 98.571635 174.224381 
L 98.621962 174.781363 
L 98.306301 174.680317 
L 98.462966 174.580936 
L 98.344496 174.512718 
L 98.467076 174.890778 
L 99.365549 173.943379 
L 98.365096 174.749274 
L 97.899642 175.874235 
L 98.922551 174.588869 
L 98.573582 175.078135 
L 98.139104 175.315953 
L 99.925129 173.878857 
L 99.186196 174.618563 
L 98.723376 174.64739 
L 99.351003 174.002618 
L 98.825905 173.733661 
L 98.957683 173.647586 
L 98.673476 173.738695 
L 98.48231 173.10803 
L 98.561336 173.505042 
L 98.172183 173.319033 
L 97.602191 173.387019 
L 97.372994 173.166461 
L 97.268985 172.531097 
L 96.827688 172.211726 
L 96.86514 171.613196 
L 96.704224 171.94321 
L 96.215956 172.496042 
L 96.114498 171.65013 
L 95.873527 171.923586 
L 96.247389 171.403441 
L 95.499705 171.596587 
L 95.498447 171.490618 
L 95.336357 171.358914 
L 95.315814 171.235833 
L 95.521804 171.506405 
L 95.306387 171.395412 
L 95.223574 171.413653 
L 95.763425 170.997559 
L 96.581234 171.343129 
L 96.507374 171.204826 
L 96.687471 171.241275 
L 96.601156 170.817314 
L 96.970623 170.790534 
L 96.470918 170.422628 
L 96.737043 170.185737 
L 96.537494 169.682549 
L 96.942405 169.609067 
L 97.174199 169.441967 
L 97.146989 169.539274 
L 97.031296 169.286733 
L 97.522203 169.010386 
L 97.182303 167.856337 
L 97.951229 169.195001 
L 97.710567 168.527946 
L 97.950401 168.355741 
L 97.426131 167.565684 
L 98.051207 167.654075 
L 100.490929 170.028363 
L 100.596498 170.30066 
L 101.909954 172.803232 
L 97.538811 166.883086 
L 98.436395 166.817989 
L 98.765357 167.004705 
L 97.833922 166.646417 
L 97.656841 166.446606 
L 97.685319 166.509716 
L 97.883935 166.306891 
L 97.738052 166.470898 
L 98.103144 165.811155 
L 99.510288 165.940661 
L 99.685787 165.426106 
L 98.480064 165.787656 
L 99.282969 165.348458 
L 99.034187 164.957238 
L 96.897772 164.730261 
L 98.685542 164.823762 
L 99.451124 164.684354 
L 97.61341 164.555659 
L 99.220243 164.781169 
L 98.825049 164.792762 
L 97.700079 164.961378 
L 97.706124 164.94125 
L 96.381915 164.720814 
L 97.817201 164.765399 
L 98.955722 164.967295 
L 98.677798 164.999963 
L 98.80431 164.80405 
L 97.683628 164.74404 
L 98.999033 164.92354 
L 97.713823 164.674073 
L 97.488469 164.904032 
L 97.671166 164.697966 
L 97.506133 164.522607 
L 97.411604 164.633765 
L 97.32423 164.186734 
L 97.860635 163.733513 
L 97.202581 164.027885 
L 97.208684 163.784985 
L 97.980758 163.016089 
L 97.684414 162.821404 
L 97.82518 162.553484 
L 97.730876 162.23603 
L 97.836453 161.846048 
L 97.089446 162.273843 
L 97.996201 161.280897 
L 97.874002 161.164262 
L 96.912271 160.627643 
L 97.108475 160.63145 
L 97.109606 160.16621 
L 97.139942 160.295101 
L 97.256471 160.527383 
L 97.020703 159.925186 
L 96.844781 160.530755 
L 97.025273 160.466862 
L 97.737569 160.11871 
L 96.77616 160.026216 
L 96.798704 160.024417 
L 97.802697 159.776251 
L 97.683657 159.797242 
L 97.542545 159.599792 
L 97.618643 159.450035 
L 97.300535 159.155092 
L 96.772114 158.82094 
L 97.057803 158.702042 
L 97.116322 158.858576 
L 96.820666 158.49363 
L 97.480936 158.289258 
L 97.352316 158.067821 
L 97.3986 157.87027 
L 97.289656 157.446468 
L 97.316011 157.245011 
L 97.542875 156.885598 
L 97.289032 156.84989 
L 97.39638 156.503514 
L 97.729906 155.77468 
L 97.710392 154.850885 
L 97.612777 154.46522 
L 97.890727 153.79805 
L 97.652863 153.517938 
L 97.923189 153.257415 
L 97.739214 152.043142 
L 98.043705 152.411632 
L 97.654124 151.53971 
L 97.844022 151.440327 
L 98.220428 150.820546 
L 97.949024 150.679979 
L 97.870537 150.106807 
L 97.871013 150.162125 
L 98.019602 149.193486 
L 98.048807 148.599212 
L 97.862143 148.139718 
L 98.040817 148.240029 
L 98.134458 146.6233 
L 98.045542 146.78548 
L 97.576606 145.879637 
L 97.644957 145.595505 
L 97.904989 145.160463 
L 97.958676 144.536467 
L 97.882408 143.702952 
L 98.076842 143.560254 
L 97.908657 141.719789 
L 98.124882 141.360774 
L 97.896886 141.111986 
L 98.097374 140.86494 
L 98.076753 139.563041 
L 98.002428 138.712863 
L 98.033659 137.187533 
L 98.302969 137.185774 
L 98.13008 136.361259 
L 97.987911 136.467397 
L 98.097945 135.543866 
L 97.907961 134.739421 
L 98.257396 134.677698 
L 97.888114 133.192999 
L 98.009653 132.934058 
L 97.561581 132.765768 
L 97.895056 132.094657 
L 97.763855 131.477659 
L 97.27084 130.831728 
L 97.410651 130.554565 
L 96.94533 130.184145 
L 96.835787 129.532243 
L 96.581062 129.002889 
L 96.299725 128.787758 
L 95.907261 127.815353 
L 95.776082 127.812539 
L 95.342664 126.595489 
L 95.374644 126.272377 
L 95.074317 125.589151 
L 94.937865 125.195064 
L 94.442653 124.555989 
L 94.075435 122.92474 
L 93.945562 122.59818 
L 94.112769 122.11873 
L 93.971145 121.746316 
L 94.352342 120.604091 
L 93.743474 120.351101 
L 93.345108 119.766438 
L 93.134227 118.985521 
L 93.097269 118.340896 
L 92.814818 118.215144 
L 93.213577 117.783828 
L 92.823134 117.40894 
L 92.982302 117.084051 
L 92.938241 116.660684 
L 93.017869 116.131069 
L 92.773091 115.160041 
L 93.045264 114.55326 
L 92.841115 113.816424 
L 92.946839 111.986813 
L 93.087315 111.486569 
L 92.891814 110.280413 
L 93.04888 109.882916 
L 92.85153 109.455981 
L 93.019302 108.98655 
L 92.809346 108.600968 
L 92.908176 108.186879 
L 92.966424 106.000975 
L 93.038163 105.139454 
L 92.911691 104.845524 
L 92.859145 104.119229 
L 93.100287 103.383179 
L 92.913488 103.144267 
L 92.684993 102.461934 
L 93.014348 101.932773 
L 92.901126 101.332137 
L 93.081494 101.089236 
L 92.775628 100.177288 
L 93.053266 99.335521 
L 92.857819 99.036011 
L 92.709923 96.617358 
L 93.061407 96.68612 
L 92.923505 95.412319 
L 93.174332 95.014143 
L 92.704865 94.691852 
L 92.799687 94.347378 
L 92.799385 93.849574 
L 92.927046 93.486187 
L 93.076205 93.489475 
L 92.807251 92.509096 
L 92.875162 92.030412 
L 92.748683 91.610496 
L 92.951947 90.695272 
L 92.816578 90.395453 
L 93.004485 89.390064 
L 92.837113 87.831092 
L 92.891891 87.790261 
L 92.805194 87.468877 
L 92.752654 86.570387 
L 92.930159 86.448172 
L 92.976031 86.053089 
L 92.777085 85.960744 
L 93.008404 84.162636 
L 92.841087 83.013932 
L 92.812098 81.467199 
L 92.949248 81.186593 
L 92.853897 80.467716 
L 93.034566 78.840664 
L 92.92389 78.580734 
L 92.82316 77.950676 
L 92.964706 77.304361 
L 92.798705 77.10446 
L 92.796656 76.749262 
L 93.071542 76.179308 
L 92.936299 75.486041 
L 92.934275 74.094686 
L 92.909275 73.627681 
L 92.702168 73.232217 
L 92.851362 72.997461 
L 92.835866 72.606369 
L 93.059792 72.16409 
L 92.823367 71.727595 
L 92.917792 71.319643 
L 92.777308 70.960546 
L 92.945962 70.784556 
L 93.044411 70.1214 
L 92.994451 69.590709 
L 92.642032 69.239787 
L 93.022108 69.091314 
L 92.96703 68.499604 
L 93.086771 68.119641 
L 93.011417 67.659987 
L 92.78448 67.166361 
L 92.848148 66.206403 
L 93.251256 66.126488 
L 93.18936 65.693489 
L 92.943331 65.076631 
L 93.248388 65.050256 
L 92.655623 64.178248 
L 92.989626 63.849278 
L 92.92395 63.393918 
L 93.167555 63.006655 
L 92.800641 61.512488 
L 93.020116 60.128804 
L 92.860415 59.741911 
L 92.994047 58.414152 
L 92.943108 57.582183 
L 93.055773 57.21312 
L 93.006915 56.323985 
L 93.319801 55.577351 
L 93.295579 55.135964 
L 93.532643 54.313842 
L 93.848459 53.151316 
L 94.50882 51.69067 
L 94.6274 51.125559 
L 94.905366 51.080719 
L 95.062287 50.735487 
L 95.112503 49.427106 
L 95.284624 48.940617 
L 95.494339 48.732039 
L 95.421703 47.910179 
L 95.78256 45.358493 
L 96.078748 44.515477 
L 96.532871 43.967423 
L 96.810572 43.912811 
L 96.671235 43.439956 
L 96.770116 43.110489 
L 96.597538 42.719099 
L 96.5612 42.359643 
L 96.757379 42.127129 
L 96.58391 41.87961 
L 96.740934 41.609109 
L 96.824014 41.233034 
L 96.918989 41.445589 
L 96.721956 41.092024 
L 96.692278 41.241567 
L 96.565659 41.011379 
L 96.93696 41.033475 
L 96.822252 40.954503 
L 96.786019 41.303366 
L 96.779943 41.063474 
L 96.600203 41.145721 
L 96.846769 41.115605 
L 96.800293 41.110173 
L 96.850897 41.155146 
L 96.689322 41.094773 
L 96.753357 41.206822 
L 96.617296 41.211331 
L 96.847132 41.166724 
L 96.664694 41.145723 
L 96.672637 40.971556 
L 96.624541 41.405564 
L 96.635099 41.334463 
L 96.840989 40.894792 
L 96.672025 40.902943 
L 96.720854 41.167756 
L 96.746254 41.037712 
L 96.783774 40.849888 
L 96.665196 40.720512 
L 96.761978 40.200977 
L 96.68256 39.797782 
L 96.76861 39.689894 
L 96.609225 39.042906 
L 96.762724 38.469066 
L 96.684376 37.929188 
L 96.781823 37.454947 
L 96.580288 37.309099 
L 96.780561 36.329736 
L 96.656739 36.04552 
L 96.752909 35.467532 
L 96.575073 33.763418 
L 96.75245 33.140005 
L 96.526514 32.905602 
L 96.673813 32.855479 
L 96.581899 32.638988 
L 96.637146 32.63828 
L 96.50219 32.800688 
L 96.353 32.725931 
L 96.452545 32.778958 
L 96.949735 32.477321 
L 96.736803 32.659157 
L 96.943901 32.255138 
L 96.644108 32.617027 
L 96.77256 32.555906 
L 96.570033 32.724962 
L 96.622633 32.694375 
L 96.683368 32.830691 
L 96.565438 32.934471 
L 96.837453 32.689885 
L 96.772206 32.65274 
L 96.839121 32.508237 
L 96.754259 32.652124 
L 96.574543 32.751239 
L 96.744235 32.522057 
L 96.31237 33.238244 
L 96.223098 33.141699 
L 96.289441 33.326659 
L 96.761946 32.567347 
L 96.489006 32.795443 
L 96.509191 32.829284 
L 96.260749 32.365358 
L 96.088403 32.453424 
L 95.900354 32.275728 
L 95.450409 32.510941 
L 95.22131 32.41847 
L 94.913249 32.508033 
L 94.856893 32.656295 
L 94.187643 32.3787 
L 93.815273 32.59895 
L 93.663838 32.457076 
L 93.345281 32.42665 
L 93.294669 32.54943 
L 93.462869 32.409671 
L 93.504172 32.710531 
L 93.342135 32.302723 
L 93.675366 32.696943 
L 93.567327 32.577116 
L 93.504064 32.753898 
L 93.249826 32.524567 
L 92.904109 32.456065 
L 92.77769 32.432446 
L 92.736858 32.65625 
L 92.528148 32.331401 
L 92.194997 32.443919 
L 91.929014 32.531644 
L 91.686521 32.415314 
L 91.446541 32.537321 
L 91.292941 32.431125 
L 91.2286 32.757838 
L 90.499438 32.405792 
L 89.806864 32.494774 
L 89.523934 32.41727 
L 89.377198 32.530125 
L 89.125257 32.399265 
L 89.095425 32.841113 
L 88.807694 32.339423 
L 88.630608 32.582603 
L 88.38642 32.607677 
L 88.136828 32.458918 
L 87.840053 32.670838 
L 87.453237 32.576653 
L 87.295963 32.251904 
L 87.194453 32.610943 
L 86.966339 32.69221 
L 86.603014 32.519258 
L 86.362593 32.201761 
L 86.253226 32.563825 
L 85.993808 32.502634 
L 85.848763 32.590137 
L 85.567389 32.35548 
L 85.483627 32.566214 
L 84.939741 32.418836 
L 84.486635 32.402946 
L 84.493784 32.587778 
L 84.329633 32.553478 
L 84.299258 32.398686 
L 84.325961 32.490035 
L 84.44142 32.510373 
L 84.176692 32.57386 
L 84.192123 32.488722 
L 84.419317 32.942108 
L 84.066362 32.428064 
L 84.066362 32.428064 
" style="fill:none;stroke:#8dd3c7;stroke-linecap:square;stroke-width:1.5;"/>
   </g>
   <g id="patch_3">
    <path d="M 82.346873 239.758125 
L 82.346873 22.318125 
" style="fill:none;stroke:#ffffff;stroke-linecap:square;stroke-linejoin:miter;stroke-width:0.8;"/>
   </g>
   <g id="patch_4">
    <path d="M 120.175627 239.758125 
L 120.175627 22.318125 
" style="fill:none;stroke:#ffffff;stroke-linecap:square;stroke-linejoin:miter;stroke-width:0.8;"/>
   </g>
   <g id="patch_5">
    <path d="M 82.346873 239.758125 
L 120.175627 239.758125 
" style="fill:none;stroke:#ffffff;stroke-linecap:square;stroke-linejoin:miter;stroke-width:0.8;"/>
   </g>
   <g id="patch_6">
    <path d="M 82.346873 22.318125 
L 120.175627 22.318125 
" style="fill:none;stroke:#ffffff;stroke-linecap:square;stroke-linejoin:miter;stroke-width:0.8;"/>
   </g>
   <g id="text_11">
    <!-- Position Offset from First Epoch -->
    <g style="fill:#ffffff;" transform="translate(7.2 16.318125)scale(0.12 -0.12)">
     <defs>
      <path d="M 19.671875 64.796875 
L 19.671875 37.40625 
L 32.078125 37.40625 
Q 38.96875 37.40625 42.71875 40.96875 
Q 46.484375 44.53125 46.484375 51.125 
Q 46.484375 57.671875 42.71875 61.234375 
Q 38.96875 64.796875 32.078125 64.796875 
z
M 9.8125 72.90625 
L 32.078125 72.90625 
Q 44.34375 72.90625 50.609375 67.359375 
Q 56.890625 61.8125 56.890625 51.125 
Q 56.890625 40.328125 50.609375 34.8125 
Q 44.34375 29.296875 32.078125 29.296875 
L 19.671875 29.296875 
L 19.671875 0 
L 9.8125 0 
z
" id="DejaVuSans-80"/>
      <path d="M 9.421875 54.6875 
L 18.40625 54.6875 
L 18.40625 0 
L 9.421875 0 
z
M 9.421875 75.984375 
L 18.40625 75.984375 
L 18.40625 64.59375 
L 9.421875 64.59375 
z
" id="DejaVuSans-105"/>
      <path d="M 54.890625 33.015625 
L 54.890625 0 
L 45.90625 0 
L 45.90625 32.71875 
Q 45.90625 40.484375 42.875 44.328125 
Q 39.84375 48.1875 33.796875 48.1875 
Q 26.515625 48.1875 22.3125 43.546875 
Q 18.109375 38.921875 18.109375 30.90625 
L 18.109375 0 
L 9.078125 0 
L 9.078125 54.6875 
L 18.109375 54.6875 
L 18.109375 46.1875 
Q 21.34375 51.125 25.703125 53.5625 
Q 30.078125 56 35.796875 56 
Q 45.21875 56 50.046875 50.171875 
Q 54.890625 44.34375 54.890625 33.015625 
z
" id="DejaVuSans-110"/>
      <path d="M 39.40625 66.21875 
Q 28.65625 66.21875 22.328125 58.203125 
Q 16.015625 50.203125 16.015625 36.375 
Q 16.015625 22.609375 22.328125 14.59375 
Q 28.65625 6.59375 39.40625 6.59375 
Q 50.140625 6.59375 56.421875 14.59375 
Q 62.703125 22.609375 62.703125 36.375 
Q 62.703125 50.203125 56.421875 58.203125 
Q 50.140625 66.21875 39.40625 66.21875 
z
M 39.40625 74.21875 
Q 54.734375 74.21875 63.90625 63.9375 
Q 73.09375 53.65625 73.09375 36.375 
Q 73.09375 19.140625 63.90625 8.859375 
Q 54.734375 -1.421875 39.40625 -1.421875 
Q 24.03125 -1.421875 14.8125 8.828125 
Q 5.609375 19.09375 5.609375 36.375 
Q 5.609375 53.65625 14.8125 63.9375 
Q 24.03125 74.21875 39.40625 74.21875 
z
" id="DejaVuSans-79"/>
      <path d="M 37.109375 75.984375 
L 37.109375 68.5 
L 28.515625 68.5 
Q 23.6875 68.5 21.796875 66.546875 
Q 19.921875 64.59375 19.921875 59.515625 
L 19.921875 54.6875 
L 34.71875 54.6875 
L 34.71875 47.703125 
L 19.921875 47.703125 
L 19.921875 0 
L 10.890625 0 
L 10.890625 47.703125 
L 2.296875 47.703125 
L 2.296875 54.6875 
L 10.890625 54.6875 
L 10.890625 58.5 
Q 10.890625 67.625 15.140625 71.796875 
Q 19.390625 75.984375 28.609375 75.984375 
z
" id="DejaVuSans-102"/>
      <path d="M 56.203125 29.59375 
L 56.203125 25.203125 
L 14.890625 25.203125 
Q 15.484375 15.921875 20.484375 11.0625 
Q 25.484375 6.203125 34.421875 6.203125 
Q 39.59375 6.203125 44.453125 7.46875 
Q 49.3125 8.734375 54.109375 11.28125 
L 54.109375 2.78125 
Q 49.265625 0.734375 44.1875 -0.34375 
Q 39.109375 -1.421875 33.890625 -1.421875 
Q 20.796875 -1.421875 13.15625 6.1875 
Q 5.515625 13.8125 5.515625 26.8125 
Q 5.515625 40.234375 12.765625 48.109375 
Q 20.015625 56 32.328125 56 
Q 43.359375 56 49.78125 48.890625 
Q 56.203125 41.796875 56.203125 29.59375 
z
M 47.21875 32.234375 
Q 47.125 39.59375 43.09375 43.984375 
Q 39.0625 48.390625 32.421875 48.390625 
Q 24.90625 48.390625 20.390625 44.140625 
Q 15.875 39.890625 15.1875 32.171875 
z
" id="DejaVuSans-101"/>
      <path d="M 9.8125 72.90625 
L 51.703125 72.90625 
L 51.703125 64.59375 
L 19.671875 64.59375 
L 19.671875 43.109375 
L 48.578125 43.109375 
L 48.578125 34.8125 
L 19.671875 34.8125 
L 19.671875 0 
L 9.8125 0 
z
" id="DejaVuSans-70"/>
      <path d="M 18.109375 8.203125 
L 18.109375 -20.796875 
L 9.078125 -20.796875 
L 9.078125 54.6875 
L 18.109375 54.6875 
L 18.109375 46.390625 
Q 20.953125 51.265625 25.265625 53.625 
Q 29.59375 56 35.59375 56 
Q 45.5625 56 51.78125 48.09375 
Q 58.015625 40.1875 58.015625 27.296875 
Q 58.015625 14.40625 51.78125 6.484375 
Q 45.5625 -1.421875 35.59375 -1.421875 
Q 29.59375 -1.421875 25.265625 0.953125 
Q 20.953125 3.328125 18.109375 8.203125 
z
M 48.6875 27.296875 
Q 48.6875 37.203125 44.609375 42.84375 
Q 40.53125 48.484375 33.40625 48.484375 
Q 26.265625 48.484375 22.1875 42.84375 
Q 18.109375 37.203125 18.109375 27.296875 
Q 18.109375 17.390625 22.1875 11.75 
Q 26.265625 6.109375 33.40625 6.109375 
Q 40.53125 6.109375 44.609375 11.75 
Q 48.6875 17.390625 48.6875 27.296875 
z
" id="DejaVuSans-112"/>
      <path d="M 48.78125 52.59375 
L 48.78125 44.1875 
Q 44.96875 46.296875 41.140625 47.34375 
Q 37.3125 48.390625 33.40625 48.390625 
Q 24.65625 48.390625 19.8125 42.84375 
Q 14.984375 37.3125 14.984375 27.296875 
Q 14.984375 17.28125 19.8125 11.734375 
Q 24.65625 6.203125 33.40625 6.203125 
Q 37.3125 6.203125 41.140625 7.25 
Q 44.96875 8.296875 48.78125 10.40625 
L 48.78125 2.09375 
Q 45.015625 0.34375 40.984375 -0.53125 
Q 36.96875 -1.421875 32.421875 -1.421875 
Q 20.0625 -1.421875 12.78125 6.34375 
Q 5.515625 14.109375 5.515625 27.296875 
Q 5.515625 40.671875 12.859375 48.328125 
Q 20.21875 56 33.015625 56 
Q 37.15625 56 41.109375 55.140625 
Q 45.0625 54.296875 48.78125 52.59375 
z
" id="DejaVuSans-99"/>
     </defs>
     <use xlink:href="#DejaVuSans-80"/>
     <use x="56.677734" xlink:href="#DejaVuSans-111"/>
     <use x="117.859375" xlink:href="#DejaVuSans-115"/>
     <use x="169.958984" xlink:href="#DejaVuSans-105"/>
     <use x="197.742188" xlink:href="#DejaVuSans-116"/>
     <use x="236.951172" xlink:href="#DejaVuSans-105"/>
     <use x="264.734375" xlink:href="#DejaVuSans-111"/>
     <use x="325.916016" xlink:href="#DejaVuSans-110"/>
     <use x="389.294922" xlink:href="#DejaVuSans-32"/>
     <use x="421.082031" xlink:href="#DejaVuSans-79"/>
     <use x="499.792969" xlink:href="#DejaVuSans-102"/>
     <use x="534.998047" xlink:href="#DejaVuSans-102"/>
     <use x="570.203125" xlink:href="#DejaVuSans-115"/>
     <use x="622.302734" xlink:href="#DejaVuSans-101"/>
     <use x="683.826172" xlink:href="#DejaVuSans-116"/>
     <use x="723.035156" xlink:href="#DejaVuSans-32"/>
     <use x="754.822266" xlink:href="#DejaVuSans-102"/>
     <use x="790.027344" xlink:href="#DejaVuSans-114"/>
     <use x="828.890625" xlink:href="#DejaVuSans-111"/>
     <use x="890.072266" xlink:href="#DejaVuSans-109"/>
     <use x="987.484375" xlink:href="#DejaVuSans-32"/>
     <use x="1019.271484" xlink:href="#DejaVuSans-70"/>
     <use x="1069.541016" xlink:href="#DejaVuSans-105"/>
     <use x="1097.324219" xlink:href="#DejaVuSans-114"/>
     <use x="1138.4375" xlink:href="#DejaVuSans-115"/>
     <use x="1190.537109" xlink:href="#DejaVuSans-116"/>
     <use x="1229.746094" xlink:href="#DejaVuSans-32"/>
     <use x="1261.533203" xlink:href="#DejaVuSans-69"/>
     <use x="1324.716797" xlink:href="#DejaVuSans-112"/>
     <use x="1388.193359" xlink:href="#DejaVuSans-111"/>
     <use x="1449.375" xlink:href="#DejaVuSans-99"/>
     <use x="1504.355469" xlink:href="#DejaVuSans-104"/>
    </g>
   </g>
  </g>
 </g>
 <defs>
  <clipPath id="p43cad09572">
   <rect height="217.44" width="37.828754" x="82.346873" y="22.318125"/>
  </clipPath>
 </defs>
</svg>
